<svg width="32" height="32" viewBox="0 0 32 32" fill="none" xmlns="http://www.w3.org/2000/svg">
<path d="M2.66602 29.3327L4.54968 22.4852C3.38779 20.4814 2.77639 18.208 2.77735 15.8791C2.78028 8.59339 8.7366 2.66602 16.055 2.66602C19.6069 2.66742 22.9406 4.04363 25.4474 6.54128C27.9543 9.03892 29.3341 12.3589 29.3327 15.8897C29.3297 23.1754 23.3729 29.1036 16.0552 29.1036H16.0552H16.0497C13.8275 29.1027 11.644 28.5479 9.7047 27.4952L2.66602 29.3327Z" fill="#3AC34C"/>
<path fill-rule="evenodd" clip-rule="evenodd" d="M12.7367 10.3558C12.4674 9.71193 12.1939 9.79904 11.9902 9.78894C11.797 9.77937 11.5756 9.77734 11.3544 9.77734C11.1332 9.77734 10.7738 9.85997 10.4697 10.1905C10.1656 10.521 9.30859 11.3198 9.30859 12.9449C9.30859 14.57 10.4974 16.14 10.6633 16.3604C10.8291 16.5808 13.0026 19.9158 16.3307 21.3459C17.1222 21.6861 17.7402 21.8892 18.222 22.0414C19.0168 22.2927 19.74 22.2572 20.3116 22.1722C20.949 22.0775 22.2744 21.3735 22.5509 20.6022C22.8274 19.831 22.8274 19.1699 22.7444 19.0322C22.6615 18.8945 22.4403 18.8119 22.1086 18.6466C21.7768 18.4813 20.1457 17.6825 19.8416 17.5724C19.5375 17.4622 19.3164 17.4071 19.0952 17.7376C18.874 18.0681 18.2382 18.8119 18.0447 19.0322C17.8512 19.2526 17.6577 19.2801 17.3259 19.1148C16.9941 18.9496 15.9252 18.6009 14.658 17.4761C13.6718 16.6006 13.0059 15.5193 12.8124 15.1888C12.6188 14.8583 12.7918 14.6795 12.9579 14.515C13.1071 14.367 13.2896 14.1293 13.4555 13.9365C13.6214 13.7437 13.6767 13.606 13.7872 13.3856C13.8978 13.1653 13.8425 12.9725 13.7596 12.8072C13.6767 12.6419 13.0132 11.0168 12.7367 10.3558Z" fill="white"/>
</svg>
